# xmcd
#
# Track frame offsets: 
#        150
#        16217
#        29725
#        51910
#        68897
#        85792
#        100157
#        114370
#        129680
#        144312
#        157515
#        172427
#        184125
#
# Disc length: 2769 seconds
#
# Revision: 2
# Processed by: cddbd v1.5.1PL0 Copyright (c) Steve Scherf et al.
# Submitted via: ExactAudioCopy v0.95a5
#
DISCID=ad0acf0d
DTITLE=Various Artist - Through The Looking Glass 1966
DYEAR=1990
DGENRE=Alternative
TTITLE0=Monks Of Doom - Who Are The Brain Police?
TTITLE1=Beef - These Boots Are Made For Walkin'
TTITLE2=A Witness - Tomorrow Never Knows
TTITLE3=No Prisoners - Paint It Black
TTITLE4=Spiral Jetty - Montague Terrace
TTITLE5=Ride - Eight Miles High
TTITLE6=Luddi Hill Death Squad - Monday Monday
TTITLE7=Barbel - Call Me
TTITLE8=Creature Comfort - I'm Losing You
TTITLE9=Foster, Joe and The Devil - Psychodaisies
TTITLE10=Family Cat - Bus Stop
TTITLE11=Levellers 5 - Eleanor Rigby
TTITLE12=Barbel - Winchester Cathedral
EXTD=
EXTT0=Monks Of Doom
EXTT1=Beef
EXTT2=A Witness
EXTT3=No Prisoners
EXTT4=Spiral Jetty
EXTT5=Ride
EXTT6=Luddi Hill Death Squad
EXTT7=Barbel
EXTT8=Creature Comforts
EXTT9=Joe Foster And The Devil
EXTT10=Family Cat
EXTT11=Levellers 5
EXTT12=Barbel
PLAYORDER=
